<?xml version="1.0" standalone="no"?>
<!DOCTYPE svg PUBLIC "-//W3C//DTD SVG 20010904//EN"
 "http://www.w3.org/TR/2001/REC-SVG-20010904/DTD/svg10.dtd">
<svg version="1.0" xmlns="http://www.w3.org/2000/svg"
 width="400.000000pt" height="400.000000pt" viewBox="0 0 400.000000 400.000000"
 preserveAspectRatio="xMidYMid meet">
<metadata>
Created by potrace 1.11, written by Peter Selinger 2001-2013
</metadata>
<g transform="translate(0.000000,400.000000) scale(0.100000,-0.100000)"
fill="#000000" stroke="none">
<path d="M1967 2762 c-15 -2 -25 -7 -22 -12 3 -5 -4 -11 -15 -15 -11 -3 -20
-10 -20 -15 0 -17 -43 -51 -50 -40 -4 7 -20 -1 -39 -19 -33 -31 -51 -39 -51
-23 0 5 -21 7 -47 5 -71 -5 -72 -5 -66 -20 3 -9 -3 -13 -22 -13 -14 0 -24 -4
-20 -9 3 -5 1 -12 -4 -16 -6 -3 -15 4 -21 15 -6 11 -15 18 -20 15 -5 -3 -21 2
-35 11 -23 15 -30 13 -26 -9 0 -4 -2 -6 -6 -6 -20 3 -23 -3 -13 -21 7 -13 18
-19 33 -16 33 5 74 -13 80 -35 6 -23 -6 -25 -23 -4 -13 15 -35 11 -25 -5 3 -5
-8 -8 -24 -7 -16 1 -27 5 -25 9 6 10 -7 38 -16 33 -4 -3 -11 2 -14 11 -3 8
-10 12 -16 9 -7 -4 -7 -13 0 -26 9 -15 7 -19 -5 -19 -9 0 -13 5 -10 10 3 6 1
10 -5 10 -7 0 -10 -7 -6 -15 3 -9 -3 -20 -14 -27 -11 -7 -20 -19 -20 -26 0
-14 -38 -71 -59 -88 -10 -7 -12 -26 -7 -72 3 -33 9 -68 12 -77 4 -8 7 -46 8
-83 2 -58 19 -125 36 -142 3 -3 5 -36 5 -75 l0 -70 40 0 40 0 6 -57 c6 -50 41
-128 59 -128 11 0 70 40 70 48 0 5 11 14 24 20 28 13 36 7 69 -59 12 -24 34
-52 49 -62 l26 -20 47 27 c25 15 49 34 52 42 3 8 11 14 18 14 16 0 55 -52 55
-73 0 -9 12 -25 28 -36 15 -11 34 -27 43 -36 14 -14 20 -13 61 5 25 11 63 38
84 60 45 46 65 50 91 15 10 -13 41 -35 68 -49 l50 -24 28 29 c15 16 27 33 27
38 0 13 59 61 75 61 7 0 32 -9 56 -20 24 -11 59 -20 77 -20 26 0 34 5 43 28 5
15 17 32 26 39 12 9 16 31 17 87 1 59 -2 72 -12 64 -9 -8 -11 -7 -6 6 5 14 14
16 43 11 111 -19 101 -21 95 16 -5 32 16 95 28 83 3 -2 4 22 2 56 -1 35 1 58
7 55 5 -4 9 -1 9 4 0 6 -5 11 -11 11 -8 0 -10 19 -6 65 5 48 3 65 -6 65 -7 0
-4 5 6 11 9 5 17 15 17 20 0 6 -5 7 -12 3 -6 -4 -8 -3 -4 4 8 13 -40 67 -61
67 -9 0 -18 6 -21 14 -3 10 0 12 12 8 15 -6 15 -4 2 21 -8 15 -23 36 -33 47
-10 11 -26 32 -36 47 -9 15 -34 37 -55 48 -45 25 -161 103 -182 121 -8 8 -28
20 -43 26 -15 7 -27 17 -27 22 0 31 -195 56 -206 27 -6 -17 -36 -15 -42 3 -3
9 -9 8 -22 -4 -20 -18 -52 -10 -48 13 2 13 -8 16 -57 16 -33 1 -72 0 -88 -2z
m-21 -67 c-3 -10 1 -15 11 -15 12 0 14 -3 6 -11 -5 -5 -22 -7 -36 -4 -24 6
-24 8 -9 26 20 23 36 25 28 4z m41 -170 c0 -8 -4 -12 -9 -9 -5 3 -6 10 -3 15
9 13 12 11 12 -6z m613 5 c0 -5 -5 -10 -11 -10 -5 0 -7 5 -4 10 3 6 8 10 11
10 2 0 4 -4 4 -10z m-1107 -32 c14 -1 23 -6 20 -12 -4 -5 5 -6 20 -2 15 3 27
2 29 -5 2 -5 18 -11 35 -11 28 -1 30 -3 20 -19 -13 -21 -28 -25 -24 -8 1 7
-26 17 -63 25 -61 13 -90 32 -90 58 0 6 7 3 14 -6 7 -10 25 -19 39 -20z m227
17 c-7 -8 -17 -12 -22 -9 -6 4 -5 10 3 15 22 14 33 10 19 -6z m330 11 c0 -2
-7 -7 -16 -10 -8 -3 -12 -2 -9 4 6 10 25 14 25 6z m-276 -18 c-3 -4 -9 -8 -15
-8 -5 0 -9 4 -9 8 0 5 7 9 15 9 8 0 12 -4 9 -9z m-31 -11 c3 -8 -1 -14 -9 -14
-15 0 -18 9 -7 20 9 9 10 9 16 -6z m390 -23 c-4 -12 -8 -13 -14 -3 -9 15 -2
32 11 24 5 -3 6 -13 3 -21z m-658 -4 c22 -10 34 -19 27 -19 -16 -1 -82 26 -82
33 0 9 12 6 55 -14z m698 -54 c3 -8 -1 -17 -9 -20 -8 -3 -12 -2 -9 3 3 6 -3
14 -12 20 -16 9 -16 10 3 11 12 0 24 -6 27 -14z m-413 -5 c0 -5 -7 -12 -16
-15 -14 -5 -15 -4 -4 9 14 17 20 19 20 6z m653 -26 c-7 -21 -13 -19 -13 6 0
11 4 18 10 14 5 -3 7 -12 3 -20z m-893 -25 c0 -5 -6 -10 -14 -10 -8 0 -18 5
-21 10 -3 6 3 10 14 10 12 0 21 -4 21 -10z m82 -17 c-10 -4 -10 -8 -1 -19 6
-8 10 -14 8 -15 -2 0 -24 -2 -48 -5 l-44 -4 24 17 c38 28 64 41 69 35 3 -2 -1
-7 -8 -9z m-113 -62 c7 -5 10 -14 7 -20 -11 -17 -26 -13 -20 4 5 11 2 13 -10
9 -9 -3 -16 -1 -16 5 0 13 20 14 39 2z m224 -8 c-6 -15 -19 -17 -27 -4 -7 11
0 18 18 18 8 0 12 -6 9 -14z m1112 -2 c-3 -6 -11 -11 -16 -11 -5 0 -4 6 3 14
14 16 24 13 13 -3z m-1281 -3 c-5 -8 -2 -9 10 -5 11 5 16 3 14 -5 -7 -21 -26
-20 -38 1 -9 17 -8 21 5 21 10 0 13 -5 9 -12z m1096 -2 c0 -8 -4 -18 -10 -21
-5 -3 -10 -4 -10 -1 0 2 -3 11 -6 20 -4 11 -1 16 10 16 9 0 16 -6 16 -14z
m-1135 -47 c5 -5 0 -9 -14 -9 -12 0 -29 7 -38 15 -14 14 -13 15 13 9 16 -4 33
-11 39 -15z m290 11 c3 -6 -1 -7 -9 -4 -18 7 -21 14 -7 14 6 0 13 -4 16 -10z
m935 -5 c-7 -9 -15 -13 -19 -10 -3 3 1 10 9 15 21 14 24 12 10 -5z m22 -17
c-8 -8 -9 -4 -5 13 4 13 8 18 11 10 2 -7 -1 -18 -6 -23z m-857 -10 c-9 -5 -21
-7 -28 -4 -7 2 -5 5 5 5 12 1 15 6 11 19 -6 15 -5 15 11 3 16 -13 16 -15 1
-23z m801 20 c4 -7 3 -8 -5 -4 -6 4 -19 2 -27 -5 -12 -10 -13 -9 -8 5 7 19 30
21 40 4z m-1101 -18 c3 -5 1 -10 -4 -10 -6 0 -11 5 -11 10 0 6 2 10 4 10 3 0
8 -4 11 -10z m922 -21 c1 -21 1 -21 -3 -2 -4 15 -10 20 -21 16 -11 -4 -14 -3
-9 6 12 19 31 7 33 -20z m283 16 c0 -9 -6 -12 -16 -8 -13 5 -13 7 -2 14 17 11
18 11 18 -6z m-215 -45 c3 -5 -1 -10 -10 -10 -9 0 -13 5 -10 10 3 6 8 10 10
10 2 0 7 -4 10 -10z m45 0 c0 -5 -5 -10 -11 -10 -5 0 -7 5 -4 10 3 6 8 10 11
10 2 0 4 -4 4 -10z m-702 -19 c3 -8 0 -11 -6 -7 -6 3 -13 2 -17 -4 -3 -5 1
-10 10 -10 9 0 14 -4 10 -9 -6 -10 -65 18 -65 31 0 19 61 19 68 -1z m612 15
c0 -3 -4 -8 -10 -11 -5 -3 -10 -1 -10 4 0 6 5 11 10 11 6 0 10 -2 10 -4z
m-865 -46 c3 -5 1 -10 -4 -10 -6 0 -11 5 -11 10 0 6 2 10 4 10 3 0 8 -4 11
-10z m565 -15 c0 -7 5 -15 10 -17 6 -2 4 -11 -5 -23 -16 -20 -16 -20 -12 1 3
13 -3 25 -16 33 -16 10 -17 15 -6 21 16 10 29 4 29 -15z m-90 -17 c0 -4 -7 -8
-15 -8 -9 0 -18 -7 -21 -15 -4 -8 -16 -15 -28 -15 -20 1 -20 2 5 24 26 22 59
31 59 14z m50 -9 c0 -5 -9 -9 -20 -9 -13 0 -18 5 -14 14 6 15 34 11 34 -5z
m300 11 c0 -5 -2 -10 -4 -10 -3 0 -8 5 -11 10 -3 6 -1 10 4 10 6 0 11 -4 11
-10z m135 -29 l20 -24 -23 12 c-12 7 -27 9 -32 6 -5 -3 -11 -1 -15 4 -3 5 3
14 12 20 10 5 18 9 18 8 0 -1 9 -13 20 -26z m-195 15 c0 -2 -7 -7 -16 -10 -8
-3 -12 -2 -9 4 6 10 25 14 25 6z m-65 -16 c3 -6 -1 -7 -9 -4 -18 7 -21 14 -7
14 6 0 13 -4 16 -10z m-745 -30 c0 -5 -9 -10 -19 -10 -11 0 -23 5 -26 10 -4 6
5 10 19 10 14 0 26 -4 26 -10z m800 0 c0 -5 -5 -10 -11 -10 -5 0 -7 5 -4 10 3
6 8 10 11 10 2 0 4 -4 4 -10z m197 -6 c-3 -3 -12 -4 -19 -1 -8 3 -5 6 6 6 11
1 17 -2 13 -5z m-1045 -39 c10 11 48 14 48 4 0 -18 -30 -21 -75 -8 -49 15 -57
26 -22 31 13 2 26 -4 33 -15 5 -10 13 -15 16 -12z m115 29 c-3 -3 -12 -4 -19
-1 -8 3 -5 6 6 6 11 1 17 -2 13 -5z m570 -8 c4 -7 15 -15 23 -18 9 -3 4 -7
-13 -10 -15 -3 -25 -3 -23 0 3 2 1 13 -5 23 -11 22 5 27 18 5z m-37 -6 c0 -5
-4 -10 -10 -10 -5 0 -10 5 -10 10 0 6 5 10 10 10 6 0 10 -4 10 -10z m125 0
c-3 -5 -10 -10 -16 -10 -5 0 -9 5 -9 10 0 6 7 10 16 10 8 0 12 -4 9 -10z m205
-60 c0 -5 -4 -10 -10 -10 -5 0 -10 5 -10 10 0 6 5 10 10 10 6 0 10 -4 10 -10z
m-437 -20 c-6 -24 -10 -25 -29 -6 -20 20 -18 26 10 26 19 0 23 -4 19 -20z
m-304 -6 c17 -4 28 -10 25 -15 -8 -13 -44 -11 -44 2 0 8 -5 8 -15 -1 -12 -10
-15 -10 -15 4 0 18 4 19 49 10z m111 -26 c0 -5 -4 -8 -10 -8 -5 0 -10 10 -10
23 0 18 2 19 10 7 5 -8 10 -18 10 -22z m-43 16 c-3 -3 -12 -4 -19 -1 -8 3 -5
6 6 6 11 1 17 -2 13 -5z m-125 -46 c-11 -11 -32 -3 -32 12 0 4 9 6 21 3 13 -4
17 -9 11 -15z m848 12 c0 -5 -6 -10 -12 -10 -7 0 -24 -3 -38 -6 -24 -5 -24 -5
-6 10 22 18 56 21 56 6z m-514 -25 c-4 -11 2 -15 22 -15 30 0 60 -15 50 -25
-3 -4 -16 -2 -27 5 -13 6 -21 7 -21 1 0 -5 -9 -9 -19 -8 -15 1 -19 7 -16 27 3
30 3 30 11 30 3 0 4 -7 0 -15z m214 -5 c0 -5 -5 -10 -11 -10 -5 0 -7 5 -4 10
3 6 8 10 11 10 2 0 4 -4 4 -10z m160 0 c12 -8 9 -10 -13 -10 -16 0 -26 4 -22
10 8 12 16 12 35 0z m-310 -56 c0 -2 -12 -4 -26 -4 -14 0 -23 4 -20 9 6 8 46
4 46 -5z"/>
<path d="M1885 2130 c-3 -5 -1 -10 4 -10 6 0 11 5 11 10 0 6 -2 10 -4 10 -3 0
-8 -4 -11 -10z"/>
<path d="M3266 2684 c-9 -8 -16 -21 -16 -27 0 -8 3 -7 9 2 5 8 14 10 22 6 9
-6 11 -4 6 8 -3 9 -1 18 6 21 9 3 9 5 0 5 -6 1 -19 -6 -27 -15z"/>
<path d="M620 2527 c0 -8 -7 -14 -15 -15 -8 -1 -21 -3 -27 -3 -7 -1 -22 2 -32
7 -15 6 -17 4 -11 -6 6 -10 4 -12 -8 -7 -11 4 -17 1 -17 -9 0 -8 -4 -13 -9
-10 -5 3 -12 -1 -15 -10 -9 -23 -8 -27 9 -20 8 3 15 1 15 -5 0 -7 10 -9 25 -5
18 5 25 2 25 -9 0 -8 5 -15 10 -15 6 0 10 8 10 17 0 13 3 14 12 5 19 -19 45
-14 51 9 5 17 11 20 30 15 21 -5 24 -3 20 14 -3 11 0 20 6 20 6 0 11 -7 11
-16 0 -8 4 -13 9 -10 5 4 12 0 14 -6 4 -9 6 -8 6 2 1 28 -27 53 -54 48 -17 -4
-25 -1 -25 8 0 8 -9 14 -20 14 -11 0 -20 -6 -20 -13z m-75 -47 c-3 -5 -11 -10
-16 -10 -6 0 -7 5 -4 10 3 6 11 10 16 10 6 0 7 -4 4 -10z"/>
<path d="M796 2490 c17 -17 26 -20 39 -12 12 6 14 11 6 16 -6 4 -11 2 -11 -5
0 -7 -10 -5 -27 6 l-28 17 21 -22z"/>
<path d="M453 2452 c-17 -11 -13 -72 5 -72 8 0 12 6 9 14 -4 11 -1 13 10 9 12
-5 14 -3 8 7 -6 10 -3 12 14 7 18 -4 20 -3 10 9 -6 8 -14 12 -17 9 -3 -2 -10
2 -16 10 -6 8 -16 11 -23 7z"/>
<path d="M3401 2296 c-2 -15 43 -56 62 -56 9 0 17 4 17 9 0 5 9 7 21 4 11 -3
18 -11 15 -19 -3 -8 12 -19 42 -30 48 -18 65 -32 56 -46 -7 -11 9 -10 41 2 17
7 24 7 20 0 -3 -6 -1 -26 6 -45 9 -25 16 -32 25 -24 6 5 19 6 29 3 13 -5 14
-9 3 -16 -9 -7 -4 -8 15 -3 19 4 26 2 22 -5 -3 -5 -16 -10 -28 -10 -19 -1 -20
-2 -7 -13 8 -7 17 -23 18 -37 2 -14 8 -26 13 -28 5 -2 9 -11 10 -20 0 -14 2
-14 6 -2 4 8 16 22 27 32 12 9 16 17 9 18 -6 0 -13 -6 -15 -12 -3 -9 -9 -8
-21 4 -22 22 -21 27 4 21 18 -5 20 -3 14 16 -4 12 -2 21 4 21 6 0 11 9 11 21
0 14 -5 19 -14 16 -10 -4 -18 5 -26 29 -12 34 -24 43 -35 24 -9 -15 -25 -12
-19 4 6 15 -30 58 -40 48 -3 -3 -6 1 -6 9 0 8 -9 21 -19 29 -11 7 -17 18 -14
23 3 5 -3 7 -13 5 -11 -2 -18 -9 -17 -15 1 -6 -4 -13 -11 -16 -10 -4 -12 0 -9
14 4 14 0 19 -16 19 -11 0 -21 4 -21 10 0 12 -42 8 -52 -5 -5 -6 -12 -4 -19 5
-8 11 -12 12 -16 3 -7 -18 -26 -16 -19 2 3 8 1 15 -4 15 -6 0 -10 -4 -10 -10
0 -14 -27 -12 -33 3 -3 6 -6 8 -6 3z"/>
<path d="M3366 2277 c3 -10 9 -15 12 -12 3 3 0 11 -7 18 -10 9 -11 8 -5 -6z"/>
<path d="M3540 2180 c0 -5 5 -10 11 -10 5 0 7 5 4 10 -3 6 -8 10 -11 10 -2 0
-4 -4 -4 -10z"/>
<path d="M706 2152 c-22 -13 -30 -14 -33 -4 -6 17 -23 15 -23 -3 0 -17 -16
-20 -25 -4 -5 7 -23 8 -49 4 -22 -4 -56 -8 -73 -9 -18 0 -34 -5 -35 -11 0 -5
-2 -17 -2 -25 -1 -11 -11 -14 -34 -12 -19 2 -32 -1 -32 -8 0 -7 -6 -10 -13 -7
-14 5 -39 -17 -30 -27 6 -6 -30 -42 -48 -48 -5 -2 -10 -35 -12 -75 -1 -56 2
-75 15 -90 9 -10 36 -39 59 -65 23 -27 47 -48 54 -48 8 0 15 -6 18 -12 2 -7 7
-11 10 -8 3 3 -11 27 -31 53 -35 44 -38 55 -33 110 1 5 5 5 11 2 6 -3 10 3 10
14 0 13 7 21 16 21 12 0 15 6 10 28 -6 24 -5 25 7 10 8 -10 20 -18 28 -18 10
0 10 3 3 8 -13 8 -13 72 0 72 4 0 6 -11 4 -25 -3 -14 -1 -28 3 -31 5 -3 9 0 9
5 0 6 7 11 15 11 8 0 15 9 15 20 0 11 3 19 8 19 4 -1 19 -1 35 0 29 1 38 21
10 21 -17 1 -17 1 0 11 10 6 25 8 34 5 11 -4 14 -2 9 9 -3 9 0 15 9 15 9 0 12
8 10 21 -3 15 0 19 13 15 66 -17 71 -17 78 9 3 14 10 25 16 25 5 0 7 -4 3 -9
-3 -5 -1 -12 5 -16 6 -3 13 1 16 10 4 9 13 14 20 11 7 -3 16 -1 18 3 3 5 16 6
29 4 14 -3 29 2 36 11 9 11 10 16 2 16 -6 0 -11 -5 -11 -11 0 -7 -10 -9 -27
-4 -16 4 -45 6 -66 6 -24 -1 -36 2 -32 9 8 13 5 13 -29 -8z"/>
<path d="M3290 1970 c-8 -5 -10 -10 -5 -10 6 0 17 5 25 10 8 5 11 10 5 10 -5
0 -17 -5 -25 -10z"/>
<path d="M3807 1956 c-9 -23 0 -37 19 -29 9 3 11 9 6 12 -5 3 -11 13 -14 20
-3 12 -6 11 -11 -3z"/>
<path d="M3330 1949 c0 -5 5 -7 10 -4 6 3 10 8 10 11 0 2 -4 4 -10 4 -5 0 -10
-5 -10 -11z"/>
<path d="M3378 1943 c7 -3 16 -2 19 1 4 3 -2 6 -13 5 -11 0 -14 -3 -6 -6z"/>
<path d="M3419 1935 c-5 -4 -39 -12 -61 -14 -11 -1 30 -41 41 -41 5 0 11 -10
13 -22 3 -20 9 -23 41 -21 33 2 37 -1 32 -16 -4 -15 1 -20 30 -25 19 -4 35
-11 35 -16 0 -5 9 -10 20 -12 15 -2 17 -7 10 -18 -9 -13 -11 -13 -19 0 -6 8
-12 12 -15 9 -10 -10 26 -50 40 -45 8 3 11 0 8 -9 -3 -7 3 -16 15 -20 32 -10
45 -42 24 -54 -10 -5 -14 -13 -9 -18 5 -4 11 -2 13 5 7 18 28 15 49 -10 10
-12 13 -18 5 -13 -11 6 -13 4 -8 -10 4 -9 2 -24 -4 -31 -10 -12 -9 -13 5 -8 9
3 16 1 16 -5 0 -6 -4 -11 -9 -11 -5 0 -8 -8 -7 -17 0 -10 -4 -17 -10 -16 -7 1
-10 -6 -7 -17 4 -13 -1 -22 -13 -27 -11 -3 -28 -15 -39 -25 -11 -10 -29 -25
-40 -33 -17 -12 -12 -12 40 1 101 25 124 38 129 76 2 13 58 58 73 58 9 0 13 6
10 14 -4 11 -1 13 10 9 13 -5 13 -3 4 15 -14 26 -14 35 0 27 6 -4 5 2 -3 14
-7 12 -16 21 -20 21 -5 0 -8 7 -8 15 0 8 -5 15 -11 15 -17 0 -49 40 -49 62 0
10 5 18 12 18 6 0 3 8 -8 19 -10 10 -27 17 -36 15 -10 -1 -18 1 -18 6 0 4 -20
16 -45 27 -25 10 -45 21 -45 25 0 4 -7 4 -17 1 -12 -5 -14 -3 -8 7 6 10 4 12
-8 7 -14 -5 -15 -1 -10 25 6 31 6 31 -30 24 -21 -4 -37 -3 -37 1 0 8 -56 43
-69 43 -4 0 -10 -2 -12 -5z m1 -19 c0 -11 -19 -15 -25 -6 -3 5 1 10 9 10 9 0
16 -2 16 -4z"/>
<path d="M793 1832 c-12 -2 -27 -10 -33 -18 -7 -8 -17 -14 -23 -14 -5 0 -20
-11 -33 -25 -13 -14 -32 -25 -44 -25 -11 0 -20 -4 -20 -10 0 -5 -9 -10 -20
-10 -18 0 -75 -44 -68 -52 4 -5 -32 -53 -39 -53 -4 0 -8 -6 -10 -14 -1 -8 -13
-25 -27 -38 -18 -17 -26 -34 -26 -58 0 -19 -4 -36 -10 -40 -15 -9 -4 -125 15
-145 10 -11 38 -20 77 -24 34 -4 83 -16 110 -26 26 -10 48 -14 48 -9 0 5 -7 9
-15 9 -9 0 -12 6 -9 15 4 9 0 15 -9 15 -8 0 -17 9 -20 20 -3 12 -1 18 5 14 10
-7 8 26 -6 89 -4 19 -3 26 4 22 5 -3 10 -2 10 3 0 5 10 14 23 21 l22 11 -22
-6 c-28 -7 -30 7 -3 24 24 15 26 38 3 50 -15 9 -14 10 3 16 10 3 28 24 38 46
13 28 26 40 40 40 19 1 19 2 4 11 -16 9 -16 11 2 29 11 11 26 20 33 20 9 0 8
3 -2 9 -10 7 -8 12 10 26 16 11 20 19 12 22 -14 5 -18 43 -5 43 4 0 13 -9 20
-20 14 -23 32 -26 32 -6 0 8 6 17 13 20 6 3 3 4 -9 3 -11 -1 -27 3 -35 8 -8 6
-24 9 -36 7z"/>
<path d="M3125 1650 c3 -5 1 -10 -4 -10 -6 0 -11 -7 -11 -15 0 -10 7 -15 18
-13 11 2 17 -3 16 -14 -2 -21 32 -25 39 -5 2 6 4 -1 4 -16 0 -16 -6 -31 -13
-34 -8 -3 -11 -9 -8 -15 3 -5 12 -7 20 -4 7 3 16 1 19 -4 4 -6 0 -10 -8 -10
-7 0 -14 -7 -14 -15 0 -12 3 -12 15 -3 12 11 14 8 8 -20 -5 -21 -4 -32 3 -32
6 0 11 6 12 13 1 6 4 1 9 -13 4 -14 5 -36 3 -50 -3 -19 -2 -21 5 -11 9 12 13
12 27 -3 15 -15 16 -21 5 -42 -8 -13 -17 -24 -22 -24 -20 0 -6 -20 15 -21 21
0 21 -1 2 -9 -11 -4 -24 -4 -29 1 -16 14 -30 10 -17 -4 6 -8 7 -18 3 -22 -4
-5 1 -5 11 -2 13 5 17 1 17 -14 0 -15 5 -19 15 -15 23 9 18 -12 -7 -25 -17 -9
-23 -9 -26 0 -2 6 -8 8 -13 5 -6 -3 -5 -11 2 -20 9 -11 7 -14 -9 -14 -35 0
-35 -19 0 -29 24 -7 27 -9 11 -10 -28 -1 -38 -18 -23 -36 10 -11 10 -15 1 -15
-7 0 -9 -5 -6 -11 4 -6 -2 -13 -14 -16 -12 -3 -21 -10 -21 -15 0 -5 -4 -7 -9
-4 -5 4 -11 3 -13 -2 -1 -4 -16 -17 -32 -30 -35 -27 -27 -28 22 -3 29 15 51
18 107 14 80 -5 199 16 248 45 32 18 41 32 73 109 13 34 14 46 5 57 -7 8 -13
25 -15 38 -1 13 -13 35 -27 50 -40 44 -49 57 -49 73 0 8 -4 15 -8 15 -5 0 -15
11 -22 25 -8 14 -20 23 -27 21 -8 -3 -13 2 -13 14 0 11 -4 20 -9 20 -5 0 -12
12 -16 28 -5 20 -19 33 -54 50 -26 12 -56 22 -65 22 -27 0 -56 19 -56 36 0 8
-4 13 -10 9 -5 -3 -18 3 -30 15 -20 20 -46 28 -35 10z m157 -485 c-3 -22 -10
-35 -19 -35 -8 0 -11 5 -8 10 3 6 -4 11 -17 11 -17 1 -18 3 -5 6 9 2 17 11 17
18 0 7 8 16 18 18 9 3 17 5 17 6 1 0 -1 -15 -3 -34z"/>
<path d="M1050 1584 c-13 -13 -19 -24 -12 -24 6 0 12 -5 12 -11 0 -5 -10 -9
-22 -7 -18 2 -24 -2 -26 -24 -2 -19 -11 -29 -33 -37 -17 -6 -28 -15 -25 -20 7
-11 -33 -55 -58 -64 -10 -4 -16 -12 -14 -19 1 -7 -6 -25 -16 -40 -10 -15 -19
-34 -20 -44 -1 -9 -13 -24 -25 -34 -21 -15 -24 -26 -27 -126 -4 -93 -1 -114
15 -144 22 -41 48 -49 136 -42 78 6 202 -15 238 -40 33 -23 36 -17 5 12 -18
16 -20 23 -10 29 11 7 10 10 -3 14 -11 5 -14 3 -9 -6 4 -7 3 -8 -2 -4 -4 4 -9
18 -9 30 0 12 -9 26 -20 32 -27 13 -32 52 -8 58 17 4 17 5 1 6 -11 1 -18 9
-18 21 0 17 -5 19 -27 14 -22 -4 -25 -3 -13 5 8 6 11 11 5 12 -5 0 1 5 15 9
24 8 24 8 3 9 -13 1 -23 7 -23 16 0 9 6 12 18 9 15 -5 15 -4 -1 6 -18 11 -18
12 0 32 18 21 18 21 -4 9 -20 -10 -22 -9 -16 5 4 12 3 15 -5 10 -7 -4 -12 -2
-12 3 0 6 5 11 11 11 6 0 3 7 -5 16 -9 8 -14 20 -10 25 3 6 0 16 -6 24 -9 11
-9 15 -1 15 12 0 10 27 -2 48 -5 8 -2 12 9 12 13 0 15 6 10 30 -4 22 -1 32 9
36 8 4 15 13 15 21 0 8 -4 11 -10 8 -15 -9 -12 4 5 21 8 9 15 24 15 35 0 10 7
19 15 19 20 0 19 13 -2 32 -16 14 -20 13 -43 -8z"/>
<path d="M3640 1600 c-8 -5 -12 -12 -9 -15 8 -8 39 5 39 16 0 11 -11 11 -30
-1z"/>
<path d="M2705 1370 c-3 -5 1 -10 10 -10 9 0 13 5 10 10 -3 6 -8 10 -10 10 -2
0 -7 -4 -10 -10z"/>
<path d="M2736 1321 c-17 -6 -17 -9 -3 -23 11 -11 13 -18 5 -26 -6 -6 -12 -41
-14 -79 -2 -47 0 -62 7 -48 6 14 7 6 3 -25 -6 -38 -5 -43 8 -32 15 12 28 7 28
-10 0 -5 -4 -7 -9 -3 -12 7 -33 -29 -24 -39 3 -3 1 -6 -5 -6 -7 0 -12 5 -12
10 0 18 -19 10 -25 -11 -9 -26 15 -45 30 -26 16 20 45 29 38 11 -3 -7 -11 -14
-19 -14 -8 0 -14 -4 -14 -10 0 -5 -10 -10 -22 -11 l-23 0 23 -9 c12 -5 22 -12
22 -15 0 -4 -3 -4 -8 -1 -16 10 -44 -22 -37 -43 5 -15 2 -21 -10 -21 -9 0 -14
4 -10 9 3 6 -4 9 -15 8 -12 -1 -18 -7 -16 -14 3 -7 1 -15 -3 -18 -5 -2 -11 5
-14 16 -3 12 -10 18 -17 14 -8 -5 -8 -10 0 -20 7 -8 9 -19 5 -25 -3 -5 -1 -10
4 -10 6 0 11 -4 11 -8 0 -5 -7 -9 -15 -9 -8 0 -15 6 -15 12 0 8 -11 11 -30 9
-20 -2 -30 1 -29 9 3 24 -1 38 -10 33 -5 -3 -7 -16 -5 -29 4 -20 4 -21 -5 -2
-5 11 -7 35 -4 54 4 24 2 32 -6 27 -6 -4 -11 -14 -11 -22 0 -8 -4 -14 -10 -14
-5 0 -10 9 -10 19 0 11 -4 23 -10 26 -13 8 -13 35 0 35 5 0 7 -6 4 -14 -4 -11
0 -13 15 -9 17 4 18 7 6 19 -7 8 -18 14 -24 14 -6 0 -11 13 -11 28 0 16 -8 39
-19 50 -23 27 -35 29 -19 3 8 -13 9 -26 2 -41 l-10 -22 -24 22 c-15 12 -20 23
-14 26 7 3 9 17 5 36 -5 24 -12 31 -34 34 -20 2 -27 -2 -27 -14 0 -15 -2 -15
-10 -2 -8 13 -10 13 -10 -2 0 -9 -8 -22 -17 -27 -16 -10 -16 -11 5 -17 23 -7
31 -24 10 -24 -9 0 -9 -3 0 -12 17 -17 15 -33 -3 -18 -12 10 -15 10 -15 -3 0
-8 -6 -18 -12 -20 -10 -4 -10 -7 0 -15 10 -7 7 -13 -13 -26 -16 -10 -23 -22
-18 -29 13 -20 12 -35 -3 -41 -9 -3 -14 1 -14 13 0 10 -7 18 -15 18 -8 0 -15
-4 -15 -9 0 -5 -13 -7 -29 -3 -30 6 -67 -17 -56 -36 4 -5 0 -10 -7 -10 -7 -1
-22 -3 -33 -5 -11 -1 -31 -5 -45 -7 -14 -2 -31 -6 -37 -10 -6 -4 -13 2 -16 13
-6 24 2 33 20 19 10 -9 13 -7 13 6 0 14 3 15 15 5 9 -8 15 -8 15 -2 0 6 3 18
7 27 5 15 3 16 -15 6 -27 -14 -32 -14 -32 4 0 9 6 12 15 9 8 -4 15 -1 15 5 0
6 -9 11 -20 11 -11 0 -20 -4 -20 -10 0 -5 -4 -10 -10 -10 -17 0 -11 28 8 33
13 3 11 6 -10 15 -16 6 -28 16 -28 22 0 6 -4 8 -10 5 -6 -4 -6 4 0 21 6 15 9
33 6 40 -3 8 1 20 9 28 12 12 8 13 -30 11 -32 -1 -45 2 -45 12 0 7 -5 13 -11
13 -7 0 -18 8 -25 18 -8 10 -13 12 -14 5 0 -7 -5 -13 -11 -13 -5 0 -7 5 -4 10
3 6 1 10 -4 10 -10 0 -16 -25 -13 -60 1 -9 -9 -20 -21 -25 -17 -8 -21 -17 -19
-43 1 -18 -2 -31 -7 -28 -5 3 -7 -4 -4 -16 4 -23 4 -23 -12 -3 -16 20 -16 19
-10 -6 4 -17 1 -30 -9 -39 -13 -10 -14 -15 -4 -28 11 -13 10 -15 -6 -9 -15 6
-17 4 -13 -14 l6 -21 -23 21 c-13 12 -27 37 -33 55 -9 30 -9 34 5 28 14 -5 15
-4 2 10 -19 20 -43 11 -37 -13 6 -22 -11 -26 -19 -5 -3 8 -15 16 -26 19 -12 3
-17 10 -13 17 4 7 -2 18 -15 27 -31 22 -41 54 -22 76 14 15 13 19 -3 37 -10
11 -15 28 -12 40 3 11 1 20 -5 20 -5 0 -7 9 -3 19 3 11 2 22 -4 25 -5 3 -8 17
-6 31 1 14 0 23 -3 21 -2 -3 -16 4 -30 15 -18 14 -29 16 -36 9 -8 -8 -7 -14 4
-20 13 -8 12 -10 -3 -10 -11 0 -20 -10 -23 -30 -4 -16 -12 -34 -20 -41 -7 -6
-11 -16 -8 -24 4 -8 -5 -15 -25 -20 -17 -3 -30 -10 -30 -13 1 -4 1 -15 0 -26
-1 -15 -4 -16 -16 -6 -14 11 -14 10 -7 -11 12 -32 5 -49 -21 -50 -21 0 -21 -1
-3 -8 19 -7 18 -8 -5 -14 -19 -6 -21 -9 -10 -16 12 -8 12 -15 -3 -45 -9 -20
-19 -36 -22 -36 -3 0 -2 6 2 13 5 8 2 8 -9 -2 -18 -15 -23 -26 -7 -16 6 3 10
-1 10 -10 0 -11 5 -15 15 -11 12 4 14 0 9 -21 -5 -18 -3 -24 4 -19 8 4 10 2 6
-7 -3 -8 1 -21 9 -28 12 -13 26 -68 30 -122 2 -28 31 -29 90 -3 128 56 259 57
319 1 15 -13 38 -46 53 -73 23 -43 30 -48 59 -47 31 1 90 30 175 88 40 27 48
29 105 24 146 -14 197 -27 250 -62 35 -23 65 -35 88 -35 31 0 36 4 53 42 51
117 200 194 273 142 17 -12 35 -14 65 -10 34 5 51 1 86 -19 23 -14 46 -25 50
-25 16 0 60 52 55 65 -4 8 -1 15 5 15 6 0 11 7 11 16 0 14 -3 14 -15 4 -12
-10 -15 -9 -17 6 0 11 -2 24 -2 31 -1 6 -5 15 -9 19 -4 4 -7 22 -7 40 0 24 -5
33 -21 37 -16 4 -20 11 -16 26 3 13 -1 21 -15 24 -15 4 -18 11 -13 28 4 12 3
19 -2 16 -5 -4 -10 0 -10 8 0 11 4 12 13 4 7 -6 18 -8 24 -4 16 10 -7 45 -30
45 -17 0 -18 3 -8 31 8 24 8 33 -2 39 -6 4 -11 10 -11 14 4 29 -1 46 -15 46
-8 0 -13 4 -10 9 3 5 -11 19 -31 31 -22 13 -39 18 -41 12 -2 -6 -10 -8 -18 -5
-11 4 -12 9 -3 19 13 16 12 16 -15 5z m34 -81 c0 -5 -4 -10 -10 -10 -5 0 -10
5 -10 10 0 6 5 10 10 10 6 0 10 -4 10 -10z m-924 -169 c-8 -12 19 -33 29 -23
4 4 2 -3 -4 -16 -10 -20 -14 -21 -26 -8 -17 17 -20 56 -4 56 5 0 8 -4 5 -9z
m50 -56 c-14 -14 -16 -14 -16 -2 0 9 6 17 13 20 19 7 21 -1 3 -18z m-396 -25
c0 -5 -4 -10 -10 -10 -5 0 -10 5 -10 10 0 6 5 10 10 10 6 0 10 -4 10 -10z
m348 -26 c-2 -25 -18 -34 -18 -10 0 8 -3 22 -6 30 -5 12 -2 15 10 10 9 -3 15
-16 14 -30z m-270 -33 c3 -8 -1 -12 -9 -9 -7 2 -15 10 -17 17 -3 8 1 12 9 9 7
-2 15 -10 17 -17z m865 -9 c3 7 3 -1 0 -18 -3 -17 0 -41 6 -53 12 -22 2 -28
-16 -10 -6 6 -9 18 -6 27 4 10 2 13 -5 8 -8 -5 -12 3 -12 25 0 26 2 29 14 20
11 -9 15 -9 19 1z m-883 -12 c0 -5 -4 -10 -10 -10 -5 0 -10 5 -10 10 0 6 5 10
10 10 6 0 10 -4 10 -10z m60 -10 c0 -5 -4 -10 -10 -10 -5 0 -10 5 -10 10 0 6
5 10 10 10 6 0 10 -4 10 -10z m350 6 c0 -3 -4 -8 -10 -11 -5 -3 -10 -1 -10 4
0 6 5 11 10 11 6 0 10 -2 10 -4z m170 -32 c0 -14 -3 -14 -15 -4 -8 7 -15 14
-15 16 0 2 7 4 15 4 8 0 15 -7 15 -16z m33 -15 c-3 -10 -12 -19 -19 -19 -8 0
-14 -7 -14 -16 0 -8 -4 -13 -9 -10 -12 8 22 74 35 69 7 -2 10 -13 7 -24z
m-543 10 c0 -15 -18 -19 -23 -6 -3 8 1 14 9 14 8 0 14 -4 14 -8z m950 -41 c0
-6 -7 -8 -15 -4 -12 4 -14 0 -11 -20 3 -15 2 -24 -1 -20 -3 3 -12 -2 -19 -12
-11 -15 -13 -13 -12 15 1 18 5 30 9 28 4 -3 10 4 14 14 6 20 35 19 35 -1z
m-517 -9 c5 -3 0 -9 -11 -11 -15 -4 -18 -1 -14 14 2 10 7 15 11 11 3 -4 10
-11 14 -14z m-227 -67 c-4 -3 -12 0 -19 7 -9 9 -9 14 3 21 11 7 16 5 18 -6 2
-9 1 -18 -2 -22z"/>
<path d="M1810 1238 c0 -7 5 -20 10 -28 8 -12 10 -11 10 7 0 12 -4 25 -10 28
-5 3 -10 0 -10 -7z"/>
<path d="M3202 1234 c10 -10 20 -15 24 -12 3 4 -5 12 -18 18 -22 12 -22 12 -6
-6z"/>
<path d="M3126 1176 c10 -8 21 -12 24 -10 5 6 -21 24 -34 24 -6 0 -1 -6 10
-14z"/>
<path d="M2702 1113 c-6 -2 -9 -9 -6 -15 4 -6 0 -14 -7 -19 -10 -6 -7 -8 9 -6
16 1 22 8 22 24 0 13 -1 23 -2 22 -2 0 -9 -3 -16 -6z"/>
<path d="M1514 1043 c2 -9 8 -19 15 -21 10 -3 10 0 2 17 -14 25 -20 27 -17 4z"/>
<path d="M2247 1047 c-3 -8 -1 -20 4 -28 6 -10 9 -7 9 14 0 29 -5 35 -13 14z"/>
<path d="M2475 1030 c3 -5 8 -10 11 -10 2 0 4 5 4 10 0 6 -5 10 -11 10 -5 0
-7 -4 -4 -10z"/>
<path d="M1568 1013 c7 -3 16 -2 19 1 4 3 -2 6 -13 5 -11 0 -14 -3 -6 -6z"/>
<path d="M1630 1001 c0 -6 5 -13 10 -16 6 -3 10 1 10 9 0 9 -4 16 -10 16 -5 0
-10 -4 -10 -9z"/>
<path d="M2634 986 c-3 -8 -12 -12 -20 -9 -10 4 -14 -3 -14 -21 0 -30 14 -34
29 -8 8 13 10 13 11 3 0 -13 2 -13 13 -2 9 10 9 15 0 18 -7 2 -9 11 -6 19 3 8
2 14 -1 14 -4 0 -9 -6 -12 -14z"/>
<path d="M1558 983 c7 -3 16 -2 19 1 4 3 -2 6 -13 5 -11 0 -14 -3 -6 -6z"/>
<path d="M1648 938 c9 -9 15 -9 24 0 9 9 7 12 -12 12 -19 0 -21 -3 -12 -12z"/>
<path d="M2050 931 c0 -11 5 -23 10 -26 6 -4 8 -12 4 -18 -3 -7 2 -3 11 8 14
18 14 20 1 23 -19 4 -21 18 -3 25 7 3 5 6 -5 6 -11 1 -18 -6 -18 -18z"/>
<path d="M2175 940 c4 -6 11 -8 16 -5 14 9 11 15 -7 15 -8 0 -12 -5 -9 -10z"/>
<path d="M2110 929 c0 -5 5 -7 10 -4 6 3 10 8 10 11 0 2 -4 4 -10 4 -5 0 -10
-5 -10 -11z"/>
</g>
</svg>
